<svg width="250" height="250" viewBox="0 0 250 250" fill="none" xmlns="http://www.w3.org/2000/svg">
<path d="M173.564 185.195C188.696 183.715 198.423 156.975 195.289 125.471C192.155 93.967 177.348 69.628 162.216 71.1085C147.084 72.5891 137.357 99.3285 140.491 130.833C143.624 162.337 158.432 186.676 173.564 185.195Z" fill="url(#paint0_linear_19_88)"/>
<path d="M80.9431 214.178C76.6396 214.323 72.3328 212.013 70.1794 208.023L39.8394 151.685C37.0763 146.555 38.9901 140.255 44.1386 137.583C49.3236 134.894 57.9944 136.615 60.8197 141.797L91.8601 198.704C94.7863 204.069 92.7239 210.452 87.2805 212.929C85.9396 213.543 82.3654 214.13 80.9431 214.178Z" fill="url(#paint1_linear_19_88)"/>
<path d="M28.2343 127.368C28.4442 127.348 28.6551 127.342 28.8658 127.351L43.9918 125.701L47.9004 165.005L33.259 166.237C32.8935 166.369 32.5129 166.456 32.126 166.494C26.9377 166.999 21.8578 158.655 20.7827 147.851C19.7075 137.047 23.0442 127.875 28.2343 127.368Z" fill="url(#paint2_linear_19_88)"/>
<path d="M43.9905 125.703C39.5568 139.351 40.8546 152.392 47.9012 165.006L164.137 190.132L154.322 79.7062L43.9905 125.703Z" fill="url(#paint3_linear_19_88)"/>
<path d="M169.549 189.114C172.764 188.8 175.785 187.145 178.533 184.198C181.331 181.198 183.716 177.02 185.622 171.782C189.627 160.769 191.014 146.468 189.526 131.516C188.038 116.563 183.859 102.808 177.76 92.7839C174.86 88.0157 171.697 84.3807 168.362 81.98C165.085 79.6217 161.798 78.5837 158.583 78.8998C155.367 79.2159 152.347 80.8685 149.599 83.8155C146.801 86.8167 144.416 90.9939 142.51 96.2327C140.835 100.84 139.618 106.017 138.878 111.582C137.848 119.322 143.787 126.714 144.654 135.414C145.574 144.664 141.478 154.545 144.276 162.28C146 167.046 148.046 171.41 150.37 175.23C153.271 179.999 156.434 183.633 159.769 186.033C163.046 188.392 166.336 189.428 169.549 189.114Z" fill="url(#paint4_linear_19_88)"/>
<mask id="mask0_19_88" style="mask-type:alpha" maskUnits="userSpaceOnUse" x="137" y="78" width="54" height="112">
<path d="M169.549 189.114C172.764 188.8 175.785 187.145 178.533 184.198C181.331 181.198 183.716 177.02 185.622 171.782C189.627 160.769 191.014 146.468 189.526 131.516C188.038 116.563 183.859 102.808 177.76 92.7839C174.86 88.0157 171.697 84.3807 168.362 81.98C165.085 79.6217 161.798 78.5837 158.583 78.8998C155.367 79.2159 152.347 80.8685 149.599 83.8155C146.801 86.8167 144.416 90.9939 142.51 96.2327C140.835 100.84 139.618 106.017 138.878 111.582C136.571 135.488 138.849 145.614 144.276 162.28C146 167.046 148.046 171.41 150.37 175.23C153.271 179.999 156.434 183.633 159.769 186.033C163.046 188.392 166.336 189.428 169.549 189.114Z" fill="#D9D9D9"/>
</mask>
<g mask="url(#mask0_19_88)">
<path d="M166.395 134.534C167.833 148.986 159.389 161.399 147.701 162.247C136.194 163.083 125.863 152.361 124.464 138.311C123.066 124.26 131.1 111.885 142.567 110.651C154.214 109.396 164.957 120.081 166.395 134.534Z" fill="url(#paint5_linear_19_88)"/>
<path style="mix-blend-mode:multiply" opacity="0.3" d="M164.53 134.479C165.598 145.211 161.774 154.189 156.072 154.528C150.459 154.861 145.129 146.671 144.091 136.237C143.053 125.803 146.677 116.844 152.26 116.213C157.932 115.573 163.462 123.747 164.53 134.479Z" fill="url(#paint6_linear_19_88)"/>
</g>
<path d="M108.166 14.4028L121.469 23.4379C121.712 23.6027 121.991 23.7061 122.283 23.7393C122.574 23.7725 122.87 23.7344 123.144 23.6284L138.143 17.814C138.458 17.6923 138.801 17.6607 139.132 17.7229C139.464 17.7851 139.772 17.9386 140.021 18.166C140.27 18.3934 140.451 18.6857 140.542 19.01C140.633 19.3342 140.632 19.6776 140.539 20.0012L136.038 35.4186C135.956 35.7 135.944 35.9971 136.003 36.2843C136.061 36.5715 136.189 36.8402 136.374 37.0673L146.551 49.5073C147.255 50.3685 147.989 51.2115 147.197 51.7857C147.163 51.8094 145.979 52.4601 145.203 52.4601L129.119 52.9531C128.825 52.962 128.538 53.042 128.283 53.1864C128.027 53.3307 127.81 53.535 127.651 53.7815L118.94 67.2833C118.68 67.6879 119.663 67.3935 119.26 67.5029C119.212 67.5157 117.806 68.0734 117.757 68.0825C117.333 68.1643 116.894 68.0916 116.518 67.8775C116.143 67.6635 115.857 67.3224 115.713 66.916L110.273 51.8075C110.173 51.5318 110.008 51.2844 109.791 51.0864C109.575 50.8885 109.314 50.7459 109.03 50.6711L93.4701 46.5754C93.1432 46.4896 92.8468 46.3141 92.6147 46.0689C92.3825 45.8237 92.2237 45.5185 92.1563 45.1879C92.0889 44.8573 92.1156 44.5145 92.2334 44.1982C92.3512 43.882 92.5553 43.6049 92.8226 43.3985L105.545 33.5649C105.777 33.3855 105.962 33.1525 106.083 32.8859C106.205 32.6193 106.26 32.3272 106.243 32.0348L105.338 16.0013C105.317 15.6645 105.391 15.3284 105.552 15.032C105.714 14.7355 105.956 14.4908 106.252 14.3262C106.286 14.3071 107.659 13.7612 107.695 13.7439C108.244 13.4777 107.583 14.0063 108.166 14.4028Z" fill="url(#paint7_linear_19_88)"/>
<path d="M109.585 13.7408L122.851 22.7639C123.093 22.9287 123.372 23.0321 123.663 23.0652C123.954 23.0984 124.248 23.0602 124.521 22.9542L139.479 17.1484C139.793 17.0268 140.135 16.9953 140.465 17.0574C140.796 17.1196 141.103 17.2728 141.351 17.4999C141.6 17.727 141.78 18.0189 141.871 18.3428C141.962 18.6666 141.961 19.0095 141.868 19.3327L137.38 34.7296C137.298 35.0106 137.286 35.3073 137.344 35.5942C137.402 35.8811 137.53 36.1494 137.715 36.376L147.862 48.7995C148.076 49.0601 148.213 49.3755 148.257 49.7099C148.301 50.0444 148.25 50.3845 148.111 50.6916C147.971 50.9987 147.748 51.2606 147.467 51.4475C147.186 51.6345 146.859 51.739 146.521 51.7492L130.482 52.2416C130.189 52.2509 129.903 52.331 129.648 52.4751C129.394 52.6192 129.178 52.823 129.019 53.0689L120.332 66.5536C120.15 66.837 119.892 67.0637 119.588 67.2082C119.283 67.3527 118.945 67.4092 118.61 67.3714C118.275 67.3335 117.957 67.2027 117.693 66.9939C117.429 66.785 117.228 66.5064 117.114 66.1896L111.685 51.0939C111.587 50.8183 111.422 50.5708 111.206 50.3729C110.99 50.175 110.729 50.0326 110.446 49.9581L94.931 45.8688C94.6049 45.7829 94.3095 45.6075 94.078 45.3626C93.8465 45.1176 93.6882 44.8127 93.6211 44.4825C93.5539 44.1524 93.5805 43.81 93.6979 43.4941C93.8153 43.1782 94.0187 42.9015 94.2853 42.6951L106.971 32.8747C107.203 32.6957 107.387 32.463 107.509 32.1968C107.63 31.9305 107.685 31.6387 107.668 31.3466L106.766 15.3344C106.747 14.9981 106.822 14.6632 106.984 14.3676C107.146 14.072 107.387 13.8274 107.68 13.6616C107.973 13.4958 108.307 13.4153 108.644 13.4293C108.981 13.4433 109.307 13.5512 109.585 13.7408Z" fill="url(#paint8_linear_19_88)"/>
<path d="M175.707 17.2374L185.497 26.2989C185.676 26.4644 185.892 26.584 186.127 26.6474C186.362 26.7108 186.609 26.7162 186.846 26.6629L199.864 23.7392C200.137 23.6783 200.422 23.6948 200.686 23.787C200.951 23.8791 201.184 24.0432 201.36 24.2608C201.536 24.4784 201.648 24.7407 201.683 25.0184C201.718 25.296 201.674 25.5778 201.557 25.8321L195.961 37.9348C195.858 38.1557 195.811 38.3981 195.824 38.6411C195.836 38.8841 195.907 39.1205 196.032 39.3298L202.836 50.8019C203.308 51.5963 203.806 52.3789 203.086 52.7502C203.055 52.7656 202.004 53.1542 201.367 53.0586L188.118 51.4789C187.876 51.4503 187.631 51.4808 187.404 51.5678C187.176 51.6548 186.973 51.7957 186.813 51.9785L178 61.9882C177.736 62.2885 178.58 62.1702 178.235 62.2085C178.194 62.2085 176.973 62.4969 176.932 62.4987C176.574 62.5134 176.222 62.3994 175.941 62.1773C175.66 61.9553 175.468 61.64 175.4 61.2885L172.808 48.2057C172.761 47.9668 172.656 47.7429 172.503 47.5535C172.35 47.364 172.153 47.2146 171.929 47.1183L159.677 41.845C159.42 41.7339 159.199 41.5532 159.039 41.3231C158.879 41.0931 158.787 40.8229 158.772 40.5432C158.758 40.2635 158.822 39.9853 158.958 39.7402C159.093 39.495 159.295 39.2927 159.539 39.156L171.186 32.6488C171.399 32.5302 171.579 32.3617 171.712 32.1578C171.845 31.9539 171.926 31.7208 171.948 31.4785L173.189 18.1992C173.214 17.9193 173.317 17.6521 173.487 17.4285C173.658 17.2049 173.888 17.0342 174.151 16.9362C174.182 16.9253 175.375 16.6459 175.406 16.6368C175.886 16.4867 175.278 16.8406 175.707 17.2374Z" fill="url(#paint9_linear_19_88)"/>
<path d="M176.893 17.0013L186.664 26.0641C186.842 26.2296 187.058 26.3493 187.293 26.4127C187.528 26.4761 187.774 26.4813 188.012 26.428L201.004 23.5039C201.277 23.4426 201.562 23.4589 201.825 23.5509C202.089 23.6429 202.322 23.807 202.498 24.0247C202.674 24.2423 202.786 24.5048 202.82 24.7826C202.855 25.0603 202.811 25.3422 202.694 25.5965L197.108 37.6972C197.006 37.9181 196.96 38.1604 196.972 38.4034C196.985 38.6464 197.056 38.8827 197.18 39.0919L203.971 50.5622C204.114 50.8031 204.186 51.0791 204.18 51.3591C204.174 51.6391 204.09 51.9119 203.938 52.1467C203.785 52.3814 203.57 52.5687 203.317 52.6875C203.064 52.8062 202.782 52.8516 202.504 52.8185L189.282 51.2391C189.04 51.2103 188.795 51.2407 188.568 51.3277C188.341 51.4147 188.139 51.5557 187.978 51.7386L179.183 61.7467C178.998 61.9569 178.758 62.1111 178.49 62.192C178.223 62.2728 177.938 62.277 177.668 62.2041C177.398 62.1313 177.153 61.9842 176.962 61.7795C176.771 61.5749 176.641 61.3209 176.587 61.0461L174 47.9737C173.953 47.7351 173.848 47.5115 173.696 47.3223C173.543 47.133 173.347 46.9838 173.124 46.8874L160.896 41.6049C160.639 41.4939 160.419 41.3131 160.259 41.0831C160.099 40.8531 160.007 40.583 159.993 40.3033C159.979 40.0236 160.043 39.7455 160.178 39.5004C160.314 39.2553 160.515 39.053 160.759 38.9164L172.383 32.4111C172.595 32.2923 172.775 32.1236 172.908 31.9197C173.041 31.7157 173.122 31.4825 173.145 31.2401L174.383 17.9666C174.408 17.6874 174.511 17.4209 174.68 17.1972C174.849 16.9736 175.077 16.8018 175.338 16.7013C175.599 16.6008 175.884 16.5756 176.158 16.6286C176.433 16.6817 176.688 16.8108 176.893 17.0013Z" fill="url(#paint10_linear_19_88)"/>
<path d="M215.346 67.0995L221.288 74.1232C221.396 74.2518 221.534 74.3523 221.69 74.416C221.846 74.4796 222.015 74.5045 222.183 74.4884L231.362 73.5963C231.554 73.5774 231.749 73.6125 231.922 73.6978C232.096 73.7832 232.242 73.9152 232.345 74.0791C232.447 74.2429 232.501 74.432 232.501 74.625C232.501 74.8179 232.446 75.0069 232.344 75.1706L227.472 82.9685C227.383 83.1109 227.33 83.2726 227.318 83.4398C227.306 83.607 227.335 83.7746 227.402 83.9282L231.091 92.3453C231.346 92.9279 231.621 93.5059 231.096 93.6986C231.073 93.7068 230.318 93.8812 229.89 93.7625L220.938 91.5582C220.774 91.5181 220.603 91.5181 220.44 91.5582C220.276 91.5983 220.125 91.6773 219.999 91.7883L213.1 97.8834C212.893 98.066 213.482 98.055 213.242 98.0532C213.214 98.0532 212.351 98.1445 212.325 98.1445C212.079 98.1244 211.847 98.0167 211.673 97.8411C211.499 97.6655 211.394 97.4337 211.377 97.1876L210.716 88.0272C210.705 87.8593 210.652 87.6967 210.563 87.5535C210.474 87.4104 210.352 87.2909 210.206 87.2054L202.252 82.5513C202.085 82.4536 201.948 82.3114 201.858 82.1406C201.768 81.9698 201.728 81.7774 201.742 81.585C201.756 81.3926 201.824 81.208 201.938 81.052C202.052 80.896 202.207 80.7748 202.386 80.7022L210.931 77.2451C211.087 77.182 211.225 77.0822 211.333 76.9541C211.442 76.8261 211.518 76.6737 211.554 76.5101L213.538 67.5406C213.578 67.3516 213.671 67.178 213.807 67.0398C213.943 66.9016 214.115 66.8045 214.303 66.7598C214.325 66.7544 215.167 66.6685 215.19 66.6612C215.532 66.6019 215.086 66.7918 215.346 67.0995Z" fill="url(#paint11_linear_19_88)"/>
<path d="M216.215 67.0161L222.109 74.0036C222.217 74.1316 222.354 74.2315 222.508 74.2948C222.663 74.3581 222.831 74.3829 222.997 74.367L232.103 73.4786C232.295 73.4599 232.487 73.4951 232.66 73.5801C232.832 73.6651 232.977 73.7966 233.078 73.9596C233.18 74.1227 233.233 74.3108 233.233 74.5027C233.233 74.6946 233.179 74.8827 233.078 75.0456L228.244 82.8035C228.156 82.9451 228.104 83.106 228.092 83.2723C228.08 83.4387 228.108 83.6054 228.175 83.7582L231.835 92.132C231.912 92.308 231.938 92.5018 231.91 92.6916C231.882 92.8815 231.801 93.0598 231.677 93.2064C231.554 93.353 231.391 93.4621 231.208 93.5214C231.026 93.5807 230.83 93.5878 230.643 93.5419L221.761 91.349C221.599 91.3092 221.43 91.3092 221.268 91.3491C221.105 91.3889 220.955 91.4674 220.83 91.5779L213.986 97.6416C213.842 97.7688 213.666 97.8534 213.476 97.8857C213.287 97.918 213.092 97.8968 212.914 97.8244C212.736 97.752 212.582 97.6313 212.469 97.4761C212.356 97.3208 212.289 97.1371 212.276 96.9457L211.62 87.8325C211.608 87.6654 211.556 87.5036 211.468 87.3612C211.38 87.2187 211.258 87.0999 211.114 87.0149L203.224 82.3892C203.058 82.2921 202.923 82.1506 202.834 81.9807C202.744 81.8108 202.704 81.6194 202.718 81.428C202.732 81.2366 202.8 81.0529 202.913 80.8977C203.026 80.7425 203.18 80.6219 203.358 80.5497L211.834 77.1104C211.989 77.0476 212.126 76.9483 212.234 76.8209C212.341 76.6935 212.416 76.5419 212.452 76.3792L214.421 67.4558C214.462 67.2686 214.556 67.0968 214.69 66.9597C214.824 66.8226 214.995 66.7258 215.181 66.6801C215.368 66.6343 215.563 66.6416 215.746 66.701C215.928 66.7603 216.091 66.8695 216.215 67.0161Z" fill="url(#paint12_linear_19_88)"/>
<path d="M225.785 113.102L227.785 119.74C227.821 119.861 227.887 119.971 227.975 120.062C228.064 120.152 228.173 120.219 228.293 120.258L234.888 122.368C235.027 122.412 235.15 122.494 235.244 122.605C235.339 122.716 235.4 122.851 235.422 122.995C235.444 123.139 235.425 123.286 235.367 123.42C235.309 123.554 235.216 123.669 235.096 123.752L229.413 127.712C229.309 127.784 229.225 127.88 229.166 127.993C229.108 128.105 229.078 128.23 229.078 128.356L229.113 135.291C229.113 135.771 229.133 136.252 228.713 136.23C228.696 136.23 228.123 136.127 227.863 135.916L222.347 131.727C222.246 131.651 222.128 131.6 222.004 131.58C221.879 131.559 221.751 131.569 221.631 131.608L215.058 133.785C214.861 133.849 215.27 134.017 215.105 133.945C215.086 133.936 214.469 133.743 214.445 133.733C214.281 133.645 214.154 133.501 214.087 133.328C214.019 133.154 214.016 132.962 214.077 132.787L216.35 126.237C216.391 126.118 216.403 125.99 216.384 125.865C216.365 125.739 216.316 125.621 216.242 125.519L212.144 119.929C212.058 119.812 212.007 119.673 211.995 119.527C211.984 119.382 212.014 119.237 212.081 119.107C212.148 118.978 212.25 118.87 212.375 118.796C212.5 118.722 212.643 118.684 212.789 118.687L219.71 118.83C219.837 118.832 219.962 118.804 220.075 118.747C220.188 118.691 220.286 118.608 220.359 118.505L224.401 112.874C224.485 112.755 224.601 112.663 224.735 112.607C224.87 112.552 225.017 112.535 225.161 112.56C225.178 112.56 225.785 112.751 225.802 112.755C226.061 112.808 225.697 112.807 225.785 113.102Z" fill="url(#paint13_linear_19_88)"/>
<path d="M226.515 113.342L228.515 119.956C228.552 120.076 228.617 120.186 228.706 120.276C228.794 120.366 228.903 120.433 229.024 120.471L235.62 122.573C235.759 122.617 235.882 122.699 235.977 122.81C236.071 122.92 236.133 123.055 236.154 123.198C236.176 123.342 236.157 123.488 236.099 123.622C236.042 123.755 235.948 123.869 235.829 123.952L230.144 127.897C230.04 127.969 229.956 128.066 229.897 128.177C229.839 128.289 229.809 128.414 229.809 128.54L229.844 135.449C229.845 135.594 229.805 135.737 229.729 135.86C229.652 135.984 229.543 136.084 229.413 136.148C229.283 136.213 229.137 136.241 228.992 136.227C228.848 136.214 228.709 136.16 228.594 136.072L223.076 131.899C222.976 131.822 222.858 131.772 222.733 131.751C222.609 131.73 222.481 131.74 222.361 131.78L215.786 133.947C215.647 133.994 215.498 134 215.356 133.966C215.214 133.932 215.085 133.858 214.982 133.754C214.88 133.65 214.809 133.52 214.778 133.377C214.746 133.235 214.756 133.087 214.805 132.949L217.078 126.424C217.119 126.305 217.131 126.177 217.112 126.053C217.093 125.928 217.045 125.81 216.97 125.708L212.877 120.147C212.791 120.03 212.739 119.891 212.728 119.747C212.717 119.602 212.746 119.457 212.813 119.328C212.88 119.199 212.982 119.092 213.107 119.018C213.233 118.944 213.376 118.906 213.521 118.909L220.445 119.051C220.571 119.053 220.696 119.025 220.809 118.969C220.922 118.912 221.02 118.829 221.094 118.727L225.136 113.118C225.221 113 225.336 112.908 225.471 112.853C225.605 112.797 225.752 112.78 225.895 112.803C226.038 112.826 226.172 112.889 226.282 112.984C226.391 113.08 226.472 113.204 226.515 113.342Z" fill="url(#paint14_linear_19_88)"/>
<path d="M182.164 236.374L179.49 236.59C178.798 236.645 178.101 236.616 177.416 236.503L166.812 234.774L166.64 234.747L154.319 232.736H154.243L144.588 231.173V176.836L154.3 176.719H154.319L166.64 177.387L166.822 177.507L181.725 178.095L182.164 236.374Z" fill="url(#paint15_linear_19_88)"/>
<path d="M219.661 180.295V230.999C219.666 231.868 219.337 232.705 218.742 233.338C218.147 233.971 217.332 234.352 216.465 234.402L181.104 236.507C179.673 236.591 178.452 235.403 178.452 233.929V181.103C178.452 179.628 179.609 178.401 181.046 178.364L216.663 177.372C217.054 177.36 217.443 177.427 217.807 177.568C218.171 177.71 218.503 177.923 218.783 178.196C219.063 178.469 219.285 178.795 219.436 179.156C219.587 179.517 219.663 179.904 219.661 180.295Z" fill="url(#paint16_linear_19_88)"/>
<path d="M144.662 176.837L178.447 178.437L216.656 177.372L177.482 176.096L144.662 176.837Z" fill="url(#paint17_linear_19_88)"/>
<path d="M191.432 235.892L203.952 235.147V177.726L191.432 178.075V235.892Z" fill="url(#paint18_linear_19_88)"/>
<path d="M166.4 177.617V234.766L154.654 232.728V177.293L158.347 177.22L166.4 177.617Z" fill="url(#paint19_linear_19_88)"/>
<path d="M172.944 176.198L195.935 177.012L203.952 177.726L191.103 178.395L159.149 176.51L172.944 176.198Z" fill="url(#paint20_linear_19_88)"/>
<path d="M185.479 174.562C186.33 169.348 186.953 165.538 190.357 162.025C191.792 160.541 193.36 158.92 195.932 158.491C198.887 157.997 202.662 159.162 203.696 161.577C204.677 163.87 202.364 165.359 203.348 167.998C204.331 170.636 207.213 170.591 207.528 172.726C207.795 174.537 206.028 176.591 204.244 177.554C201.161 179.217 199.412 176.877 193.393 177.255C189.245 177.516 186.851 178.829 185.728 177.504C185.193 176.868 185.246 175.992 185.479 174.562Z" fill="url(#paint21_linear_19_88)"/>
<path d="M163.029 161.671C165.529 159.698 168.163 161.899 171.243 159.725C174.361 157.529 173.455 154.005 175.871 153.006C178.681 151.845 182.84 155.384 184.831 157.635C189.887 163.345 192.261 173.48 188.266 177.047C186.766 178.385 182.518 177.834 174.084 176.676C164.445 175.352 163.06 174.407 162.135 173.165C159.649 169.826 160.201 163.905 163.029 161.671Z" fill="url(#paint22_linear_19_88)"/>
<path d="M179.457 177.394L166.638 177.878L154.299 177.293L158.29 177.22L175.757 176.91L179.457 177.394Z" fill="url(#paint23_linear_19_88)"/>
<defs>
<linearGradient id="paint0_linear_19_88" x1="133.926" y1="95.2862" x2="201.8" y2="161.114" gradientUnits="userSpaceOnUse">
<stop stop-color="#003681"/>
<stop offset="1" stop-color="#044CB0"/>
</linearGradient>
<linearGradient id="paint1_linear_19_88" x1="80.4604" y1="154.175" x2="51.2819" y2="196.434" gradientUnits="userSpaceOnUse">
<stop stop-color="#002558"/>
<stop offset="1" stop-color="#044CB0"/>
</linearGradient>
<linearGradient id="paint2_linear_19_88" x1="23.0806" y1="134.499" x2="52.9637" y2="163.276" gradientUnits="userSpaceOnUse">
<stop stop-color="#003A8A"/>
<stop offset="1" stop-color="#044CB0"/>
</linearGradient>
<linearGradient id="paint3_linear_19_88" x1="88.6348" y1="81.1542" x2="135.631" y2="246.981" gradientUnits="userSpaceOnUse">
<stop stop-color="#044CB0"/>
<stop offset="1" stop-color="#4E91EE"/>
</linearGradient>
<linearGradient id="paint4_linear_19_88" x1="130.2" y1="138.658" x2="188.959" y2="134.115" gradientUnits="userSpaceOnUse">
<stop stop-color="#002A64"/>
<stop offset="1" stop-color="#044CB0"/>
</linearGradient>
<linearGradient id="paint5_linear_19_88" x1="130.07" y1="82.4819" x2="160.754" y2="190.753" gradientUnits="userSpaceOnUse">
<stop stop-color="#FFC444"/>
<stop offset="1" stop-color="#F36F56"/>
</linearGradient>
<linearGradient id="paint6_linear_19_88" x1="142.986" y1="95.5482" x2="165.627" y2="175.436" gradientUnits="userSpaceOnUse">
<stop stop-color="#FFC444"/>
<stop offset="1" stop-color="#F36F56"/>
</linearGradient>
<linearGradient id="paint7_linear_19_88" x1="133.433" y1="24.4177" x2="124.765" y2="35.5234" gradientUnits="userSpaceOnUse">
<stop stop-color="#FFC444"/>
<stop offset="1" stop-color="#F36F56"/>
</linearGradient>
<linearGradient id="paint8_linear_19_88" x1="134.53" y1="21.0793" x2="75.901" y2="117.367" gradientUnits="userSpaceOnUse">
<stop stop-color="#FFC444"/>
<stop offset="1" stop-color="#F36F56"/>
</linearGradient>
<linearGradient id="paint9_linear_19_88" x1="195.179" y1="28.5661" x2="186.686" y2="36.6038" gradientUnits="userSpaceOnUse">
<stop stop-color="#FFC444"/>
<stop offset="1" stop-color="#F36F56"/>
</linearGradient>
<linearGradient id="paint10_linear_19_88" x1="196.45" y1="26.1078" x2="136.307" y2="97.9098" gradientUnits="userSpaceOnUse">
<stop stop-color="#FFC444"/>
<stop offset="1" stop-color="#F36F56"/>
</linearGradient>
<linearGradient id="paint11_linear_19_88" x1="227.741" y1="76.5209" x2="221.246" y2="81.3154" gradientUnits="userSpaceOnUse">
<stop stop-color="#FFC444"/>
<stop offset="1" stop-color="#F36F56"/>
</linearGradient>
<linearGradient id="paint12_linear_19_88" x1="228.783" y1="74.8895" x2="181.811" y2="118.751" gradientUnits="userSpaceOnUse">
<stop stop-color="#FFC444"/>
<stop offset="1" stop-color="#F36F56"/>
</linearGradient>
<linearGradient id="paint13_linear_19_88" x1="231.827" y1="123.727" x2="225.898" y2="125.098" gradientUnits="userSpaceOnUse">
<stop stop-color="#FFC444"/>
<stop offset="1" stop-color="#F36F56"/>
</linearGradient>
<linearGradient id="paint14_linear_19_88" x1="233.2" y1="122.972" x2="187.288" y2="139.468" gradientUnits="userSpaceOnUse">
<stop stop-color="#FFC444"/>
<stop offset="1" stop-color="#F36F56"/>
</linearGradient>
<linearGradient id="paint15_linear_19_88" x1="130.651" y1="155.502" x2="157.64" y2="196.292" gradientUnits="userSpaceOnUse">
<stop stop-color="#FFC444"/>
<stop offset="1" stop-color="#FF9B1D"/>
</linearGradient>
<linearGradient id="paint16_linear_19_88" x1="214.65" y1="179.799" x2="175.156" y2="246.5" gradientUnits="userSpaceOnUse">
<stop stop-color="#FFC444"/>
<stop offset="1" stop-color="#FF8E00"/>
</linearGradient>
<linearGradient id="paint17_linear_19_88" x1="185.858" y1="158.787" x2="179.601" y2="180.835" gradientUnits="userSpaceOnUse">
<stop stop-color="#FF8E00"/>
<stop offset="1" stop-color="#FF8E00"/>
</linearGradient>
<linearGradient id="paint18_linear_19_88" x1="194.879" y1="207.026" x2="223.283" y2="202.826" gradientUnits="userSpaceOnUse">
<stop stop-color="#FD393D"/>
<stop offset="1" stop-color="#C91A1E"/>
</linearGradient>
<linearGradient id="paint19_linear_19_88" x1="158.028" y1="206.399" x2="184.782" y2="202.443" gradientUnits="userSpaceOnUse">
<stop stop-color="#FD393D"/>
<stop offset="1" stop-color="#B81014"/>
</linearGradient>
<linearGradient id="paint20_linear_19_88" x1="175.667" y1="177.988" x2="235.674" y2="169.114" gradientUnits="userSpaceOnUse">
<stop stop-color="#FD393D"/>
<stop offset="1" stop-color="#C4191C"/>
</linearGradient>
<linearGradient id="paint21_linear_19_88" x1="206.334" y1="160.637" x2="191.402" y2="176.167" gradientUnits="userSpaceOnUse">
<stop stop-color="#FD393D"/>
<stop offset="1" stop-color="#C6171A"/>
</linearGradient>
<linearGradient id="paint22_linear_19_88" x1="171.052" y1="166.828" x2="210.709" y2="160.963" gradientUnits="userSpaceOnUse">
<stop stop-color="#FD393D"/>
<stop offset="1" stop-color="#AA070A"/>
</linearGradient>
<linearGradient id="paint23_linear_19_88" x1="163.564" y1="177.834" x2="197.374" y2="172.833" gradientUnits="userSpaceOnUse">
<stop stop-color="#FD393D"/>
<stop offset="1" stop-color="#CD2023"/>
</linearGradient>
</defs>
</svg>
