<svg width="375" height="188" viewBox="0 0 375 188" fill="none" xmlns="http://www.w3.org/2000/svg">
<g filter="url(#filter0_d_36_1343)">
<path d="M339.086 37.486H202.903C201.398 37.486 199.908 37.7835 198.518 38.3615C197.127 38.9395 195.865 39.7866 194.801 40.8544C193.738 41.9222 192.895 43.1897 192.321 44.5843C191.747 45.979 191.453 47.4735 191.455 48.9823V142.655C191 144.5 190.044 148.159 188 150.858C186 153.5 181.798 154.926 179.903 155.5H339.106C342.142 155.5 345.053 154.291 347.2 152.138C349.347 149.986 350.553 147.067 350.553 144.023V48.9229C350.537 45.8842 349.322 42.9753 347.174 40.8322C345.025 38.689 342.117 37.486 339.086 37.486Z" fill="url(#paint0_linear_36_1343)"/>
<path d="M191.955 48.9823L191.955 48.9814C191.953 47.5382 192.234 46.1087 192.784 44.7747C193.333 43.4406 194.139 42.2284 195.156 41.2072C196.173 40.186 197.38 39.3759 198.709 38.8232C200.039 38.2705 201.464 37.986 202.903 37.986H339.086C341.984 37.986 344.765 39.1364 346.82 41.1862C348.876 43.236 350.038 46.0185 350.053 48.9255V144.023C350.053 146.935 348.899 149.727 346.846 151.785C344.793 153.844 342.009 155 339.106 155H182.813C183.243 154.822 183.687 154.623 184.133 154.403C185.699 153.631 187.33 152.571 188.399 151.16C190.512 148.369 191.487 144.614 191.941 142.775L191.955 142.716V142.655L191.955 48.9823Z" stroke="black" stroke-opacity="0.1"/>
</g>
<g filter="url(#filter1_d_36_1343)">
<path d="M133.334 32.052H50.3608C36.5789 32.052 25.4065 43.2542 25.4065 57.0729V140.267C25.4065 154.086 36.5789 165.288 50.3608 165.288H133.334C147.116 165.288 158.288 154.086 158.288 140.267V57.0729C158.288 43.2542 147.116 32.052 133.334 32.052Z" fill="#FCFCFC"/>
</g>
<path d="M59.6055 99.0331C65.4077 99.0331 70.1112 94.3169 70.1112 88.4993C70.1112 82.6816 74.8148 77.9658 80.617 77.9658C86.4192 77.9658 91.1228 82.6816 91.1228 88.4993C91.1228 94.3169 86.4192 99.0331 80.617 99.0331C74.8148 99.0331 70.1112 103.749 70.1112 109.567V130.634C70.1112 136.452 65.4077 141.168 59.6055 141.168C53.8034 141.168 49.0999 136.452 49.0999 130.634V109.567C49.0999 103.749 53.8034 99.0331 59.6055 99.0331Z" fill="#044CB0"/>
<path d="M69.0245 87.9545C69.0245 93.4712 64.5642 97.9434 59.0621 97.9434C53.5602 97.9434 49.0999 93.4712 49.0999 87.9545C49.0999 82.438 53.5602 77.9658 59.0621 77.9658C64.5642 77.9658 69.0245 82.438 69.0245 87.9545Z" fill="#FD393D"/>
<path d="M134.233 65.7972C134.233 71.314 129.772 75.7862 124.27 75.7862C118.768 75.7862 114.308 71.314 114.308 65.7972C114.308 60.2808 118.768 55.8086 124.27 55.8086C129.772 55.8086 134.233 60.2808 134.233 65.7972Z" fill="#044CB0"/>
<path d="M134.233 109.022C134.233 114.539 129.772 119.011 124.27 119.011C118.768 119.011 114.308 114.539 114.308 109.022C114.308 103.505 118.768 99.0332 124.27 99.0332C129.772 99.0332 134.233 103.505 134.233 109.022Z" fill="#FF8E00"/>
<path d="M134.233 130.635C134.233 136.452 129.529 141.168 123.727 141.168C117.925 141.168 113.221 136.452 113.221 130.635C113.221 124.817 117.925 120.101 123.727 120.101C129.529 120.101 134.233 124.817 134.233 130.635Z" fill="#044CB0"/>
<path d="M111.772 87.4096C111.772 92.6255 107.555 96.8537 102.353 96.8537C97.151 96.8537 92.9341 92.6255 92.9341 87.4096C92.9341 82.194 97.151 77.9658 102.353 77.9658C107.555 77.9658 111.772 82.194 111.772 87.4096Z" fill="#21B14C"/>
<path d="M102.715 97.9434C108.517 97.9434 113.221 93.2273 113.221 87.4096C113.221 81.592 108.517 76.8758 102.715 76.8758C96.9134 76.8758 92.2095 72.1597 92.2095 66.3421C92.2095 60.5244 96.9134 55.8086 102.715 55.8086C108.517 55.8086 113.221 60.5244 113.221 66.3421C113.221 72.1597 117.925 76.8758 123.727 76.8758C129.529 76.8758 134.233 81.592 134.233 87.4096C134.233 93.2273 129.529 97.9434 123.727 97.9434C117.925 97.9434 113.221 102.66 113.221 108.477C113.221 114.295 108.517 119.011 102.715 119.011C96.9134 119.011 92.2095 114.295 92.2095 108.477C92.2095 102.66 96.9134 97.9434 102.715 97.9434Z" fill="#FD393D"/>
<path d="M90.3981 130.998C90.3981 136.414 86.019 140.805 80.617 140.805C75.215 140.805 70.8358 136.414 70.8358 130.998C70.8358 125.581 75.215 121.19 80.617 121.19C86.019 121.19 90.3981 125.581 90.3981 130.998Z" fill="#FF8E00"/>
<path d="M91.1228 110.112C91.1228 104.595 86.6625 100.123 81.1604 100.123C75.6586 100.123 71.1983 104.595 71.1983 110.112C71.1983 115.628 75.6586 120.101 81.1604 120.101C86.6625 120.101 91.1228 124.573 91.1228 130.09C91.1228 135.606 95.583 140.079 101.085 140.079C106.587 140.079 111.048 135.606 111.048 130.09C111.048 124.573 106.587 120.101 101.085 120.101C95.583 120.101 91.1228 115.628 91.1228 110.112Z" fill="#21B14C"/>
<path d="M59.6055 55.8086C53.8034 55.8086 49.0999 60.5244 49.0999 66.3421C49.0999 72.1597 53.8034 76.8758 59.6055 76.8758H80.617C86.4192 76.8758 91.1228 72.1597 91.1228 66.3421C91.1228 60.5244 86.4192 55.8086 80.617 55.8086H59.6055Z" fill="#FF8E00"/>
<path d="M149.382 60.3741C159.796 60.3741 168.238 51.8634 168.238 41.3652C168.238 30.8669 159.796 22.3564 149.382 22.3564C138.969 22.3564 130.527 30.8669 130.527 41.3652C130.527 51.8634 138.969 60.3741 149.382 60.3741Z" fill="#F8203D"/>
<path d="M163.878 29.0059C166.293 33.0973 167.096 37.9531 166.13 42.6131C165.164 47.2731 162.499 51.398 158.661 54.1724C154.823 56.9466 150.093 58.1679 145.405 57.5952C140.717 57.0226 136.413 54.6972 133.343 51.0791C134.679 53.342 136.466 55.3005 138.591 56.8305C140.717 58.3605 143.134 59.4286 145.691 59.9672C148.248 60.5058 150.887 60.5033 153.442 59.9594C155.998 59.4155 158.414 58.3424 160.536 56.8083C162.658 55.2739 164.442 53.3117 165.772 51.0462C167.103 48.7807 167.953 46.2612 168.267 43.6473C168.581 41.0335 168.353 38.3824 167.598 35.8619C166.842 33.3415 165.576 31.0068 163.878 29.0059Z" fill="#D61C35"/>
<path d="M149.145 31.2512L144.515 33.7492L145.276 36.7743L148.462 35.0403V51.4806H151.989V31.2512H149.145Z" fill="white"/>
<rect x="208.419" y="58.6138" width="129.911" height="8.59429" rx="4.29714" fill="#CCCCCC"/>
<rect x="208.419" y="81.1733" width="129.911" height="8.59429" rx="4.29714" fill="#CCCCCC"/>
<rect x="208.419" y="103.734" width="129.911" height="8.59429" rx="4.29714" fill="#CCCCCC"/>
<rect x="208.419" y="126.294" width="102.321" height="8.59429" rx="4.29714" fill="#CCCCCC"/>
<defs>
<filter id="filter0_d_36_1343" x="170.903" y="28.4861" width="190.65" height="138.014" filterUnits="userSpaceOnUse" color-interpolation-filters="sRGB">
<feFlood flood-opacity="0" result="BackgroundImageFix"/>
<feColorMatrix in="SourceAlpha" type="matrix" values="0 0 0 0 0 0 0 0 0 0 0 0 0 0 0 0 0 0 127 0" result="hardAlpha"/>
<feOffset dx="1" dy="1"/>
<feGaussianBlur stdDeviation="5"/>
<feComposite in2="hardAlpha" operator="out"/>
<feColorMatrix type="matrix" values="0 0 0 0 0 0 0 0 0 0 0 0 0 0 0 0 0 0 0.15 0"/>
<feBlend mode="normal" in2="BackgroundImageFix" result="effect1_dropShadow_36_1343"/>
<feBlend mode="normal" in="SourceGraphic" in2="effect1_dropShadow_36_1343" result="shape"/>
</filter>
<filter id="filter1_d_36_1343" x="16.4065" y="23.052" width="152.882" height="153.236" filterUnits="userSpaceOnUse" color-interpolation-filters="sRGB">
<feFlood flood-opacity="0" result="BackgroundImageFix"/>
<feColorMatrix in="SourceAlpha" type="matrix" values="0 0 0 0 0 0 0 0 0 0 0 0 0 0 0 0 0 0 127 0" result="hardAlpha"/>
<feOffset dx="1" dy="1"/>
<feGaussianBlur stdDeviation="5"/>
<feComposite in2="hardAlpha" operator="out"/>
<feColorMatrix type="matrix" values="0 0 0 0 0 0 0 0 0 0 0 0 0 0 0 0 0 0 0.15 0"/>
<feBlend mode="normal" in2="BackgroundImageFix" result="effect1_dropShadow_36_1343"/>
<feBlend mode="normal" in="SourceGraphic" in2="effect1_dropShadow_36_1343" result="shape"/>
</filter>
<linearGradient id="paint0_linear_36_1343" x1="197.672" y1="114.875" x2="350.57" y2="155.02" gradientUnits="userSpaceOnUse">
<stop stop-color="#F7F7F7"/>
<stop offset="1" stop-color="#EFEFEF"/>
</linearGradient>
</defs>
</svg>
